<?xml version="1.0" encoding="UTF-8"?>
<!-- Created with Inkscape (http://www.inkscape.org/) -->
<svg width="40" height="40" version="1.1" viewBox="0 0 10.583 10.583" xmlns="http://www.w3.org/2000/svg" xmlns:xlink="http://www.w3.org/1999/xlink">
 <defs>
  <linearGradient id="linearGradient59695" x1="60.547" x2="62.445" y1="222.42" y2="189.2" gradientTransform="matrix(.99972 0 0 1.1501 -.51308 -23.182)" gradientUnits="userSpaceOnUse">
   <stop stop-color="#362c2c" offset="0"/>
   <stop stop-color="#332121" offset="1"/>
  </linearGradient>
  <linearGradient id="linearGradient60133" x1="145.12" x2="146.21" y1="226.56" y2="189.87" gradientTransform="matrix(.99971 0 0 1.1523 .04494 -23.521)" gradientUnits="userSpaceOnUse">
   <stop stop-color="#322929" offset="0"/>
   <stop stop-color="#2c1e1e" offset="1"/>
  </linearGradient>
 </defs>
 <g transform="translate(-.012982 -.0012783)">
  <g transform="matrix(.038527 0 0 .038132 1.2854 -.326)">
   <rect x="-33.026" y="8.5828" width="274.7" height="277.55" fill="#ef3340"/>
   <path d="m108.11 8.5829v277.55h133.56v-277.55z" fill="#b82b35"/>
   <g fill="none" stroke="#000" stroke-linecap="square" stroke-linejoin="bevel">
    <rect x="74.041" y="194.17" width="58.461" height="51.942" stroke-width=".35724"/>
    <path d="m74.041 246.11h58.461l-10.168 11.136h-35.595z" stroke-width=".3448"/>
    <path d="m54.983 211.66 22.747-12.97-3.6886 47.423-10.173-8.6114z" stroke-width=".35278"/>
   </g>
   <g transform="translate(-1.0583 -49.213)">
    <path d="m20.381 317.76 172.12-0.37272m-130.71-149.69-41.412 150.06zm-15.385-58.742c3.2836-8.5528 14.452-16.706 22.661-22.238 8.2089-5.5329 13.686-8.2775 23.488-9.9807 9.8019-1.7032 21.057-1.8587 30.106 0s14.789 4.4163 23.269 9.9807c8.4802 5.5644 20.949 13.645 24.271 22.238s3.4174 18.281 1.1983 25.159c-2.2192 6.878-8.7018 9.2378-11.365 14.883-2.6628 5.6456-6.7675 18.587-6.7675 18.587l-91.475 0.1131s-2.9858-13.279-5.3949-18.98c-2.4091-5.701-9.6817-7.632-11.656-14.604-1.9745-6.9718-1.6177-16.606 1.6659-25.159zm146.09 208.43-39.232-149.8z" fill="none" stroke="#efefff" stroke-linecap="round" stroke-linejoin="bevel" stroke-width="7.5"/>
    <path d="m46.524 108.72c3.2836-8.5528 14.452-16.706 22.661-22.238s13.686-8.2775 23.488-9.9807c9.8019-1.7032 21.057-1.8587 30.106 0s14.789 4.4163 23.269 9.9807c8.4802 5.5644 20.949 13.645 24.271 22.238s3.4174 18.281 1.1983 25.159c-2.2192 6.878-8.7018 9.2378-11.365 14.883-2.6628 5.6456-6.7675 18.587-6.7675 18.587l-11.304-22.574-33.68-8.6497-31.611 8.6201-14.996 22.943s-2.2479-13.092-4.6571-18.793-10.304-8.0457-12.278-15.017-1.6177-16.606 1.6659-25.159z" fill="#212c31"/>
    <path transform="scale(.26458)" d="m411.23 284.12v230.77l125.76 32.297 42.725 85.32s15.514-48.912 25.578-70.25c10.064-21.338 34.566-30.256 42.953-56.252 8.3873-25.996 8.0235-62.61-4.5293-95.088-12.553-32.478-59.681-63.02-91.732-84.051-32.051-21.031-53.748-30.698-87.947-37.723-16.218-3.3313-34.315-4.9298-52.809-5.0254z" fill="#1b2224"/>
    <path d="m149.48 154.43-28.733 103.29 0.38973 59.999s66.676-0.34137 71.366-0.33656c-1.9432-6.7286-39.405-149.58-39.405-149.58z" fill="url(#linearGradient60133)" stroke="#322929" stroke-linecap="square" stroke-linejoin="round" stroke-width=".379"/>
    <g>
     <path d="m64.913 156.76 27.403 100.77-0.38972 59.884-71.545 0.34726z" fill="url(#linearGradient59695)" stroke="#322929" stroke-linecap="square" stroke-linejoin="round" stroke-width=".378"/>
     <path d="m64.913 156.76c3.2502-14.758 6.4403-13.727 12.567-17.444 8.9317-5.4194 31.016-4.5055 31.016-4.5055s21.82-0.48538 30.455 5.1181c5.7533 3.7333 8.3484 3.8661 11.381 17.141 3.0322 13.275-20.067 68.053-20.067 68.053-21.808 0.0851-28.328 0.25787-48.445 0.3052 0 0-20.158-53.91-16.908-68.668z" fill="#e2c1ac"/>
     <g stroke="#000" stroke-linecap="square" stroke-linejoin="bevel" stroke-width=".35278">
      <ellipse cx="84.524" cy="160.71" rx="5.3604" ry="5.4333" fill="#35292b"/>
      <ellipse cx="84.524" cy="158.3" rx="1.1311" ry="1.1172" fill="#f9f9f9"/>
     </g>
     <path transform="scale(.26458)" d="m413.67 509.47c-1.9886 8e-3 -2.7835 0.0251-3.0938 0.0312v341.87c22.589-0.1951 46.637-0.39222 81.764-0.5293 0 0 87.302-207.03 75.842-257.21-11.46-50.174-21.267-50.675-43.012-64.785-28.558-18.531-95.269-19.442-111.5-19.381z" fill="#ce9976"/>
    </g>
    <g transform="translate(46.545)" stroke="#000" stroke-linecap="square" stroke-linejoin="bevel" stroke-width=".35278">
     <ellipse cx="84.524" cy="160.71" rx="5.3604" ry="5.4333" fill="#35292b"/>
     <ellipse cx="84.524" cy="158.3" rx="1.1311" ry="1.1172" fill="#fff"/>
    </g>
    <g>
     <path d="m108.49 150.26-14.174 43.123 25.768 0.0639z" fill="#d0a690"/>
     <circle cx="80.267" cy="182.98" r="7.7632" fill="#e8cbb5"/>
     <circle cx="131.13" cy="182.98" r="7.7632" fill="#deb597"/>
    </g>
    <path d="m120.3 151s9.8885-1.4536 14.605-1.4619c4.7163-8e-3 11.758 1.4122 11.758 1.4122" fill="none" stroke="#000" stroke-linecap="round" stroke-linejoin="bevel" stroke-width="3.553"/>
    <path d="m94.806 151s-9.8884-1.4536-14.605-1.4619c-4.7163-8e-3 -11.758 1.4122-11.758 1.4122" fill="none" stroke="#000" stroke-linecap="round" stroke-linejoin="bevel" stroke-width="3.553"/>
    <g>
     <path transform="scale(.26458)" d="m410.03 567.92-0.14844 0.45117v162.67l43.967 0.10937z" fill="#c88553"/>
     <path d="m121.72 227.73-0.92558-21.009s-0.29092-4.6553 5.2208 0.50719c2.051 1.921 3.5004 6.7479 4.5218 11.535 1.7236 8.0772 2.4964 17.797 0.89352 22.263-1.3907 3.8744-2.5257 2.8631-4.4143 3.7495-1.5782 0.7408-2.5528 1.8918-3.4926 3.9554s-1.0909 8.2568-1.0909 8.2568l-0.0636 1.0106-0.0814 59.213h-35.512l-0.26919-59.116-0.24424-1.0913c-2.1586-4.7126 0.98648 0.63261-18.088-18.238-5.8929-5.8298-10.017-12.404-12.385-19.828-0.66596-2.0875-1.1221-4.4969-0.38948-6.562 0.49045-1.3825 1.7916-2.3742 2.971-3.2466 5.939-4.3934 14.517-9.7999 20.012-9.5224m-2.4379 15.397s-5.2559 1.8821-5.2499 4.1032c0.0058 2.1446 5.0905 3.9347 5.0905 3.9347m31.467 3.2968-1.1075-23.469s0.23533-0.97734 1.0814-1.8738c0.84613-0.89649 1.1545-1.1254 2.6329-1.7142 1.4784-0.58879 4.6578-0.4571 6.1919 0.25315 1.5342 0.71026 2.0183 1.5937 2.8072 2.8137s1.8491 4.3757 1.8491 4.3757l1.04 20.837m-31.257-3.0996-0.04884-22.681-0.0069-3.2179s0.14289-1.8352 1.0237-2.712c0.8808-0.87679 1.5956-0.97955 2.4929-1.1797 2.1069-0.47004 4.4138-0.61899 6.476 0.0194 0.97907 0.30307 1.0522 0.2967 2.5422 1.7296 1.4899 1.4329 3.1466 6.3772 3.1466 6.3772l1.1289 23.532m-31.575 7.8743 0.36584-30.675s1.1491-2.3167 2.3473-3.9253c0.32285-0.43343 0.66341-0.7248 0.96905-1.0142 0.78382-0.7423 1.3456-1.2589 2.783-1.6564s3.7789-0.67091 4.8393-0.20922 0.82516 0.27127 1.7055 1.0961c0.88032 0.82478 1.7633 3.9694 1.7633 3.9694l0.10381 22.669" fill="#e2c1ac"/>
     <path transform="scale(.26458)" d="m367.59 734.25v464.67h94.617l0.30664-223.8 0.24024-3.8203s0.57101-23.407 4.123-31.207c3.552-7.7996 7.2363-12.149 13.201-14.949 7.1378-3.3504 11.427 0.47138 16.684-14.172 6.0583-16.878 3.1376-53.615-3.377-84.143-3.8608-18.092-9.3381-36.335-17.09-43.596-20.832-19.512-19.732-1.918-19.732-1.918l2.4844 56.381-2.8144-56.365s-4.0064-11.926-6.9883-16.537c-2.9818-4.6112-4.8109-7.9503-10.609-10.635-5.7984-2.6844-17.815-3.1824-23.402-0.95704-5.5877 2.2254-6.7532 3.0902-9.9512 6.4785-3.1979 3.3883-4.0879 7.082-4.0879 7.082l2.7148 57.52-0.0547-0.0351-2.7695-57.756s-6.2614-18.688-11.893-24.104c-5.6312-5.4155-5.909-5.3916-9.6094-6.5371-3.8399-1.1888-7.9041-1.6487-11.992-1.6035zm91.334 125.73 1.1074 0.0937 0.0293 0.64453z" fill="#ce9976"/>
    </g>
    <g stroke-linejoin="bevel">
     <path d="m121.72 227.73-0.92558-21.009s-0.29092-4.6553 5.2208 0.50719c2.051 1.921 3.5004 6.7479 4.5218 11.535 1.7236 8.0772 2.4964 17.797 0.89352 22.263-1.3907 3.8744-2.5257 2.8631-4.4143 3.7495-1.5782 0.7408-2.5528 1.8918-3.4926 3.9554s-1.0909 8.2568-1.0909 8.2568l-0.0636 1.0106-0.0814 59.213h-35.512l-0.26919-59.116-0.24424-1.0913c-2.1586-4.7126 0.98648 0.63261-18.088-18.238-5.8929-5.8298-10.017-12.404-12.385-19.828-0.66596-2.0875-1.1221-4.4969-0.38948-6.562 0.49045-1.3825 1.7916-2.3742 2.971-3.2466 5.939-4.3934 14.517-9.7999 20.012-9.5224m-2.4379 15.397s-5.2559 1.8821-5.2499 4.1032c0.0058 2.1446 5.0905 3.9347 5.0905 3.9347m31.467 3.2968-1.1075-23.469s0.23533-0.97734 1.0814-1.8738c0.84613-0.89649 1.1545-1.1254 2.6329-1.7142 1.4784-0.58879 4.6578-0.4571 6.1919 0.25315 1.5342 0.71026 2.0183 1.5937 2.8072 2.8137s1.8491 4.3757 1.8491 4.3757l1.04 20.837m-31.257-3.0996-0.04884-22.681-0.0069-3.2179s0.14289-1.8352 1.0237-2.712c0.8808-0.87679 1.5956-0.97955 2.4929-1.1797 2.1069-0.47004 4.4138-0.61899 6.476 0.0194 0.97907 0.30307 1.0522 0.2967 2.5422 1.7296 1.4899 1.4329 3.1466 6.3772 3.1466 6.3772l1.1289 23.532m-31.575 7.8743 0.36584-30.675s1.1491-2.3167 2.3473-3.9253c0.32285-0.43343 0.66341-0.7248 0.96905-1.0142 0.78382-0.7423 1.3456-1.2589 2.783-1.6564s3.7789-0.67091 4.8393-0.20922 0.82516 0.27127 1.7055 1.0961c0.88032 0.82478 1.7633 3.9694 1.7633 3.9694l0.10381 22.669" fill="none" stroke="#c88553" stroke-linecap="square" stroke-width=".35278"/>
     <path d="m92.618 277.82h22.85c5.5055 0 9.9788 4.4324 9.9377 9.9377l-0.24109 30.266-0.0402-0.0197-42.378-0.2987 0.0324-4e-3 -0.09878-29.943c-0.01816-5.5055 4.4322-9.9377 9.9377-9.9377z" fill="#ffd5d5" stroke-linecap="round" stroke-width="3.553"/>
     <path transform="scale(.26458)" d="m367.74 1050v151.13l105.17 0.7422 0.15235 0.074 0.91015-114.39c0.15527-20.808-16.75-37.559-37.559-37.559z" fill="#fcbaba" stroke-linecap="round" stroke-width="13.429"/>
    </g>
   </g>
  </g>
 </g>
</svg>
